<svg xmlns="http://www.w3.org/2000/svg" width="392" height="392" preserveAspectRatio="xMidYMid meet" version="1.0" viewBox="0 0 294 294"><metadata>Created by potrace 1.14, written by Peter Selinger 2001-2017</metadata><g fill="#000" stroke="none"><path d="M1317 2924 c-1 -1 -22 -5 -47 -9 -59 -8 -77 -12 -125 -24 -22 -5 -40 -10 -40 -10 0 1 -43 -13 -108 -35 -139 -48 -341 -154 -409 -216 -9 -8 -31 -26 -49 -40 -98 -77 -235 -235 -317 -365 -69 -111 -169 -355 -187 -456 -29 -163 -33 -429 -10 -564 75 -426 370 -832 760 -1044 48 -26 147 -70 175 -76 3 -1 19 -7 35 -15 33 -13 49 -18 171 -49 73 -19 104 -21 330 -17 196 2 261 6 304 20 30 9 66 19 79 22 14 3 29 8 35 12 6 3 18 8 27 9 36 6 195 79 271 125 46 28 115 75 153 106 79 64 235 217 235 232 0 5 6 13 13 17 8 4 31 33 51 63 21 30 41 57 44 60 4 3 17 23 29 45 11 22 30 56 40 75 64 118 136 333 148 445 6 49 6 418 0 445 -3 14 -8 41 -11 60 -11 62 -31 134 -59 205 -14 39 -27 75 -29 80 -12 45 -143 271 -178 306 -8 8 -17 20 -19 26 -2 6 -35 46 -74 89 -58 63 -122 119 -280 242 -5 5 -37 24 -70 43 -129 74 -277 136 -374 154 -9 2 -16 4 -16 6 0 1 -9 3 -20 5 -11 1 -36 5 -55 9 -86 14 -124 17 -268 19 -84 1 -153 1 -155 0z m351 -374 c113 -15 200 -43 312 -101 274 -143 472 -382 564 -679 33 -109 43 -207 38 -378 -5 -171 -32 -286 -102 -428 -144 -296 -410 -516 -726 -600 -82 -22 -122 -27 -234 -28 -230 -2 -327 15 -494 84 -169 71 -377 243 -480 399 -255 383 -255 876 0 1263 61 91 242 262 340 320 138 81 305 142 426 156 81 10 250 6 356 -8z" transform="translate(0.000000,294.000000) scale(0.100000,-0.100000)"/><path d="M1099 1963 c-2 -205 2 -1127 5 -1130 9 -9 974 552 1026 596 25 21 25 21 5 37 -17 13 -232 143 -335 202 -19 11 -156 90 -304 176 -148 86 -270 156 -272 156 -2 0 -28 16 -58 35 -30 19 -58 35 -61 35 -3 0 -6 -48 -6 -107z" transform="translate(0.000000,294.000000) scale(0.100000,-0.100000)"/></g></svg>